<?xml version="1.0" encoding="utf-8"?>
<!-- Generator: Adobe Illustrator 16.0.0, SVG Export Plug-In . SVG Version: 6.00 Build 0)  -->
<!DOCTYPE svg PUBLIC "-//W3C//DTD SVG 1.1//EN" "http://www.w3.org/Graphics/SVG/1.1/DTD/svg11.dtd">
<svg version="1.1" id="churka" xmlns="http://www.w3.org/2000/svg" xmlns:xlink="http://www.w3.org/1999/xlink" x="0px" y="0px"
	 width="60.131px" height="53.273px" viewBox="0 0 60.131 53.273" enable-background="new 0 0 60.131 53.273" xml:space="preserve">
<g id="Layer_7" display="none">
	<rect x="-8" y="-10.833" display="inline" fill="#1F3154" width="329.333" height="73"/>
</g>
<g id="Layer_4">
</g>
<g id="Layer_6">
</g>
<g id="Layer_14_xA0_Image_1_">
	<g id="mnumi.com_xA0_Image_1_">
		
			<line display="none" fill="none" stroke="#FFFFFF" stroke-width="3" stroke-miterlimit="10" x1="-2.497" y1="-127.189" x2="12.785" y2="-137.388"/>
		
			<line display="none" fill="none" stroke="#FFFFFF" stroke-width="3" stroke-miterlimit="10" x1="-2.979" y1="-127.372" x2="13.226" y2="-116.948"/>
	</g>
	<g id="Layer_5">
	</g>
</g>
<path fill="#FFFFFF" d="M52.688,25.794c0.117-0.78,0.18-1.567,0.18-2.347c0-2.729-0.738-5.412-2.137-7.786
	c2.363-2.778,8.305-9.718,8.305-9.718l0.311-0.36L53.465,0L42.972,9.068c-1.771-0.681-3.623-1.026-5.513-1.026
	c-6.123,0-11.56,3.535-14.043,9.066c-1.799-1.489-4.039-2.303-6.38-2.303c-5.525,0-10.02,4.495-10.02,10.021
	c0,0.334,0.018,0.676,0.054,1.021C2.823,27.224,0,31.092,0,35.601c0,4.604,3.137,8.678,7.538,9.896
	c-0.78,2.124-1.238,4.553-1.363,7.229L6.15,53.272l0.542-0.021c8.874-0.361,13.069-4.157,15.038-7.383h28.128
	c2.746,0,5.336-1.086,7.295-3.057c1.943-1.959,2.998-4.523,2.978-7.222C60.099,30.746,57.595,27.449,52.688,25.794z M55.379,41.051
	c-1.481,1.495-3.44,2.318-5.517,2.318H23.457c0.271-0.797,0.415-1.459,0.49-1.902c1.585-0.771,5.924-3.007,9.265-5.822l1.336-1.125
	l-1.646-0.583c-3.45-1.222-5.978-3.656-7.505-7.24l-0.709-1.663l-1.784,2.565c-2.773,3.982-2.773,3.982-4.652,7.898l-0.007,0.016
	c-1.901,0.305-7.023,1.659-10.159,7.539c-3.306-0.965-5.582-3.975-5.582-7.448c0-3.642,2.478-6.753,6.027-7.566l1.408-0.328
	L9.663,26.29c-0.098-0.507-0.145-0.984-0.145-1.465c0-4.146,3.374-7.521,7.52-7.521c2.149,0,4.206,0.932,5.643,2.555l1.723,1.949
	l0.822-2.468c1.761-5.267,6.677-8.804,12.235-8.804c7.116,0,12.907,5.791,12.907,12.907c0,0.907-0.098,1.825-0.289,2.729
	l-0.29,1.373l1.351,0.381c4.342,1.228,6.467,3.739,6.495,7.682C57.649,37.637,56.849,39.569,55.379,41.051z"/>
</svg>
